<svg xmlns="http://www.w3.org/2000/svg" width="300.605" height="58.5" viewBox="0 0 300.605 58.5">
  <g id="your_logo_about" transform="translate(0 0)">
    <path id="Path_9956" data-name="Path 9956" d="M38.033-35.01,23.767-6.783V8.8H13.9V-6.6L0-35.01H11.272l7.057,16.343q.183.458,1.008,3.574h.122a15.914,15.914,0,0,1,.947-3.452L27.585-35.01ZM54.449,9.56q-7.82,0-12.3-4.384t-4.475-11.9q0-7.759,4.643-12.143t12.555-4.384q7.79,0,12.219,4.384t4.43,11.593q0,7.79-4.567,12.311T54.449,9.56Zm.244-25.416A6.439,6.439,0,0,0,49.378-13.5a10.373,10.373,0,0,0-1.894,6.66q0,9.012,7.27,9.012,6.934,0,6.934-9.256Q61.689-15.856,54.694-15.856ZM110.64,8.8h-9.623V4.031h-.153Q97.29,9.56,91.3,9.56q-10.875,0-10.875-13.166V-22.485H90.05V-4.461q0,6.629,5.254,6.629A5.2,5.2,0,0,0,99.459.35a7.33,7.33,0,0,0,1.558-4.934v-17.9h9.623ZM142.3-13.779a8.374,8.374,0,0,0-4.063-.947,5.853,5.853,0,0,0-4.918,2.306,10.062,10.062,0,0,0-1.772,6.278V8.8h-9.653V-22.485h9.653v5.8h.122q2.291-6.354,8.248-6.354a6.217,6.217,0,0,1,2.383.367Z" transform="translate(0 35.01)" fill="#e57607"/>
    <path id="Path_9955" data-name="Path 9955" d="M-95.059,8.8h-26.088V-35.01h9.867V.793h16.221Zm22.985.764q-7.82,0-12.3-4.384t-4.475-11.9q0-7.759,4.643-12.143t12.555-4.384q7.79,0,12.219,4.384T-55-7.272q0,7.79-4.567,12.311T-72.075,9.56Zm.244-25.416A6.439,6.439,0,0,0-77.146-13.5a10.373,10.373,0,0,0-1.894,6.66q0,9.012,7.27,9.012,6.934,0,6.934-9.256Q-64.835-15.856-71.83-15.856ZM-14.937,5.222q0,8.706-5.04,13.487t-14.6,4.781q-6.324,0-10.02-1.8V13.562a19.188,19.188,0,0,0,9.745,2.81q4.888,0,7.576-2.581A9.263,9.263,0,0,0-24.59,6.78V4.306h-.122A10.78,10.78,0,0,1-34.458,9.56a11.721,11.721,0,0,1-9.5-4.216q-3.513-4.216-3.513-11.3,0-7.943,3.91-12.616a12.765,12.765,0,0,1,10.295-4.674,9.5,9.5,0,0,1,8.554,4.4h.122v-3.635h9.653ZM-24.468-6.233V-8.708a7.6,7.6,0,0,0-1.757-5.056,5.681,5.681,0,0,0-4.567-2.093,5.9,5.9,0,0,0-5.04,2.5,11.779,11.779,0,0,0-1.833,7.057A9.942,9.942,0,0,0-35.924-.108a5.674,5.674,0,0,0,4.766,2.276A5.907,5.907,0,0,0-26.316-.139,9.457,9.457,0,0,0-24.468-6.233ZM11.163,9.56q-7.82,0-12.3-4.384t-4.475-11.9q0-7.759,4.643-12.143t12.555-4.384q7.79,0,12.219,4.384T28.24-7.272q0,7.79-4.567,12.311T11.163,9.56Zm.244-25.416A6.439,6.439,0,0,0,6.092-13.5,10.373,10.373,0,0,0,4.2-6.844q0,9.012,7.27,9.012,6.934,0,6.934-9.256Q18.4-15.856,11.408-15.856Z" transform="translate(272.365 35.01)"/>
  </g>
</svg>
