<svg xmlns="http://www.w3.org/2000/svg" width="60" height="60" viewBox="0 0 60 60">
  <g id="ic_order_type_header" transform="translate(-38 -586)">
    <rect id="Rectangle_214" data-name="Rectangle 214" width="60" height="60" rx="10" transform="translate(38 586)" fill="#eef5f6"/>
    <g id="Group_5366" data-name="Group 5366" transform="translate(-14.761 -13)">
      <path id="online-order" d="M30,8v5.859a1.172,1.172,0,1,1-2.344,0V8a2.372,2.372,0,0,0-1.368-2.158,1.172,1.172,0,1,1,.978-2.13A4.722,4.722,0,0,1,30,8ZM28.828,18.551a1.172,1.172,0,0,0-1.172,1.172,2.346,2.346,0,0,1-2.344,2.344H4.687a2.346,2.346,0,0,1-2.344-2.344V8A2.352,2.352,0,0,1,3.712,5.873a1.172,1.172,0,1,0-.978-2.13A4.7,4.7,0,0,0,0,8V19.723a4.693,4.693,0,0,0,4.687,4.687h9.141v2.344h-4.1a1.168,1.168,0,1,0,0,2.337H20.273a1.168,1.168,0,1,0,0-2.337h-4.1V24.411h9.141A4.693,4.693,0,0,0,30,19.723a1.172,1.172,0,0,0-1.172-1.172Z" transform="translate(67.761 614.902)"/>
      <path id="online-order-2" data-name="online-order" d="M5.532,14.883V5.918A1.172,1.172,0,0,1,6.7,4.746h3.516V3.516a3.516,3.516,0,0,1,7.031,0v1.23h3.516a1.172,1.172,0,0,1,1.172,1.172v8.965A3.519,3.519,0,0,1,18.423,18.4H9.048A3.519,3.519,0,0,1,5.532,14.883ZM12.563,4.746h2.344V3.516a1.172,1.172,0,0,0-2.344,0ZM7.876,14.883a1.173,1.173,0,0,0,1.172,1.172h9.375a1.173,1.173,0,0,0,1.172-1.172V7.09H17.251V8.262a1.172,1.172,0,0,1-2.344,0V7.09H12.563V8.262a1.172,1.172,0,0,1-2.344,0V7.09H7.876Zm0,0" transform="translate(69.025 614)" fill="#e57607"/>
    </g>
  </g>
</svg>
